<svg xmlns="http://www.w3.org/2000/svg" width="680" height="480" viewBox="0 0 680 480" font-family="system-ui, sans-serif">
  <defs>
    <marker id="arrow" viewBox="0 0 10 10" refX="8" refY="5" markerWidth="6" markerHeight="6" orient="auto-start-reverse">
      <path d="M2 1L8 5L2 9" fill="none" stroke="#888780" stroke-width="1.5" stroke-linecap="round" stroke-linejoin="round"/>
    </marker>
  </defs>
  <rect x="40" y="30" width="160" height="50" rx="8" fill="#F1EFE8" stroke="#5F5E5A" stroke-width="0.5"/>
  <text x="120" y="50" text-anchor="middle" font-size="14" font-weight="500" fill="#2C2C2A">Web UI</text>
  <text x="120" y="67" text-anchor="middle" font-size="12" fill="#5F5E5A">Upload + review queue</text>
  <line x1="200" y1="55" x2="258" y2="55" stroke="#888780" stroke-width="1.5" marker-end="url(#arrow)"/>
  <rect x="260" y="30" width="180" height="50" rx="8" fill="#E6F1FB" stroke="#185FA5" stroke-width="0.5"/>
  <text x="350" y="50" text-anchor="middle" font-size="14" font-weight="500" fill="#042C53">FastAPI backend</text>
  <text x="350" y="67" text-anchor="middle" font-size="12" fill="#185FA5">Cloud Run container</text>
  <line x1="350" y1="80" x2="350" y2="118" stroke="#888780" stroke-width="1.5" marker-end="url(#arrow)"/>
  <rect x="40" y="120" width="160" height="50" rx="8" fill="#FAECE7" stroke="#993C1D" stroke-width="0.5"/>
  <text x="120" y="140" text-anchor="middle" font-size="14" font-weight="500" fill="#4A1B0C">Groq API</text>
  <text x="120" y="157" text-anchor="middle" font-size="12" fill="#993C1D">Llama 4 Scout</text>
  <line x1="200" y1="145" x2="258" y2="145" stroke="#888780" stroke-width="1.5" marker-end="url(#arrow)"/>
  <rect x="260" y="120" width="180" height="50" rx="8" fill="#E6F1FB" stroke="#185FA5" stroke-width="0.5"/>
  <text x="350" y="140" text-anchor="middle" font-size="14" font-weight="500" fill="#042C53">Extraction</text>
  <text x="350" y="157" text-anchor="middle" font-size="12" fill="#185FA5">Poppler + vision LLM</text>
  <line x1="350" y1="170" x2="350" y2="208" stroke="#888780" stroke-width="1.5" marker-end="url(#arrow)"/>
  <rect x="40" y="210" width="160" height="50" rx="8" fill="#EEEDFE" stroke="#534AB7" stroke-width="0.5"/>
  <text x="120" y="230" text-anchor="middle" font-size="14" font-weight="500" fill="#26215C">Pydantic schema</text>
  <text x="120" y="247" text-anchor="middle" font-size="12" fill="#534AB7">Typed contract</text>
  <line x1="258" y1="235" x2="202" y2="235" stroke="#888780" stroke-width="1.5" marker-end="url(#arrow)"/>
  <rect x="260" y="210" width="180" height="50" rx="8" fill="#EEEDFE" stroke="#534AB7" stroke-width="0.5"/>
  <text x="350" y="230" text-anchor="middle" font-size="14" font-weight="500" fill="#26215C">Validation agent</text>
  <text x="350" y="247" text-anchor="middle" font-size="12" fill="#534AB7">Rules + confidence</text>
  <path d="M350 260 L350 280 L255 280 L255 298" fill="none" stroke="#888780" stroke-width="1.5" marker-end="url(#arrow)"/>
  <line x1="350" y1="260" x2="350" y2="298" stroke="#888780" stroke-width="1.5" marker-end="url(#arrow)"/>
  <rect x="180" y="300" width="150" height="50" rx="8" fill="#EAF3DE" stroke="#3B6D11" stroke-width="0.5"/>
  <text x="255" y="320" text-anchor="middle" font-size="14" font-weight="500" fill="#173404">Approved</text>
  <text x="255" y="337" text-anchor="middle" font-size="12" fill="#3B6D11">Confidence cleared</text>
  <rect x="370" y="300" width="150" height="50" rx="8" fill="#FAEEDA" stroke="#854F0B" stroke-width="0.5"/>
  <text x="445" y="320" text-anchor="middle" font-size="14" font-weight="500" fill="#412402">Needs review</text>
  <text x="445" y="337" text-anchor="middle" font-size="12" fill="#854F0B">Flagged for human</text>
  <line x1="255" y1="350" x2="255" y2="398" stroke="#888780" stroke-width="1.5" marker-end="url(#arrow)"/>
  <line x1="445" y1="350" x2="445" y2="398" stroke="#888780" stroke-width="1.5" marker-end="url(#arrow)"/>
  <rect x="220" y="400" width="260" height="50" rx="8" fill="#E1F5EE" stroke="#0F6E56" stroke-width="0.5"/>
  <text x="350" y="420" text-anchor="middle" font-size="14" font-weight="500" fill="#04342C">Postgres (Neon)</text>
  <text x="350" y="437" text-anchor="middle" font-size="12" fill="#0F6E56">Invoices + status</text>
  <path d="M445 300 L445 285 L545 285 L545 425 L482 425" fill="none" stroke="#888780" stroke-width="1.5" stroke-dasharray="4 3" marker-end="url(#arrow)"/>
  <text x="551" y="360" text-anchor="start" font-size="12" fill="#5F5E5A">human</text>
  <text x="551" y="376" text-anchor="start" font-size="12" fill="#5F5E5A">resolves</text>
</svg>